<svg version="1.1" xmlns="http://www.w3.org/2000/svg" viewBox="0 0 182.353515625 203.13339987028257" width="364.70703125" height="406.26679974056515"><!-- svg-source:excalidraw --><metadata></metadata><defs><style class="style-fonts">
      </style></defs><g stroke-linecap="round" transform="translate(10 110.60214987028257) rotate(0 21.177734375 41.265625)"><path d="M10.59 0 C21.73 2.64, 26.71 2.95, 31.77 0 C35.47 1.17, 44.28 6.41, 42.36 10.59 C44.23 26.3, 43.14 40.98, 42.36 71.94 C42.45 77.17, 36.13 80.16, 31.77 82.53 C26.92 79.17, 22.08 85.49, 10.59 82.53 C3.09 85.51, 3.51 79.2, 0 71.94 C-2.74 52.81, 0.99 39.9, 0 10.59 C2.61 6.4, 4.76 2.58, 10.59 0" stroke="none" stroke-width="0" fill="#fa5252"></path><path d="M10.59 0 C16.79 0.63, 21.61 -1.77, 31.77 0 M10.59 0 C17.17 0.96, 23.93 -0.73, 31.77 0 M31.77 0 C36.96 -0.22, 42.6 4.95, 42.36 10.59 M31.77 0 C39.26 -0.44, 43.38 4.15, 42.36 10.59 M42.36 10.59 C42.67 29.38, 41.57 44.08, 42.36 71.94 M42.36 10.59 C42.16 30.38, 41.41 49.38, 42.36 71.94 M42.36 71.94 C42.93 80.06, 39.31 83.63, 31.77 82.53 M42.36 71.94 C43.75 78.64, 37.03 84.21, 31.77 82.53 M31.77 82.53 C26.52 82.43, 17.67 81.77, 10.59 82.53 M31.77 82.53 C24.82 82.1, 18.27 83.1, 10.59 82.53 M10.59 82.53 C4.84 83.64, 1.74 79.86, 0 71.94 M10.59 82.53 C3.58 81.14, 0.4 80.04, 0 71.94 M0 71.94 C2 51.48, 1.95 30.4, 0 10.59 M0 71.94 C-0.85 52.66, 0.51 33.35, 0 10.59 M0 10.59 C-1.03 3.44, 3.07 1.05, 10.59 0 M0 10.59 C-0.35 5.03, 2.54 -1.28, 10.59 0" stroke="#1e1e1e" stroke-width="2" fill="none"></path></g><g stroke-linecap="round" transform="translate(129.998046875 10) rotate(0 21.177734375 76.19951243514129)"><path d="M10.59 0 C17.35 0.68, 25.08 -0.62, 31.77 0 C42.18 1.45, 39.24 3.43, 42.36 10.59 C42.27 35.86, 44.03 61.68, 42.36 141.81 C40.03 145.78, 41.74 152, 31.77 152.4 C25.83 151.26, 17.12 149.63, 10.59 152.4 C2.69 155.21, 0.32 150.62, 0 141.81 C-1.94 95.89, -0.46 52.82, 0 10.59 C3.17 4.84, 3.77 -0.53, 10.59 0" stroke="none" stroke-width="0" fill="#69db7c"></path><path d="M10.59 0 C19.58 0.74, 25.13 -1.33, 31.77 0 M10.59 0 C16.5 -0.66, 24.78 0.47, 31.77 0 M31.77 0 C40.28 1.72, 42.61 4.7, 42.36 10.59 M31.77 0 C39.54 -1.14, 42.15 5.53, 42.36 10.59 M42.36 10.59 C41.22 48.19, 41.37 84.98, 42.36 141.81 M42.36 10.59 C42.55 44.85, 42.59 78.84, 42.36 141.81 M42.36 141.81 C42.8 150.62, 36.96 153.05, 31.77 152.4 M42.36 141.81 C43.58 150.71, 37.1 152.75, 31.77 152.4 M31.77 152.4 C24.97 154.07, 17.54 151.5, 10.59 152.4 M31.77 152.4 C27.21 151.53, 22.39 151.45, 10.59 152.4 M10.59 152.4 C4.17 154.21, -0.25 150.52, 0 141.81 M10.59 152.4 C5.77 152.53, -0.77 150.26, 0 141.81 M0 141.81 C1.68 91.58, 2.2 42.2, 0 10.59 M0 141.81 C-1.8 98.12, -1.22 54.91, 0 10.59 M0 10.59 C-0.9 3.12, 3.58 -0.32, 10.59 0 M0 10.59 C-0.33 1.48, 3.44 -1.51, 10.59 0" stroke="#1e1e1e" stroke-width="2" fill="none"></path></g><g stroke-linecap="round" transform="translate(68.2469751818528 58.09041700419789) rotate(0 21.177734375 59.40235080804234)"><path d="M10.59 0 C18.4 -3.47, 23.21 -3.85, 31.77 0 C35.93 -3.48, 44.17 2.17, 42.36 10.59 C38.21 52.48, 40.9 88.73, 42.36 108.22 C45.91 115.95, 39.35 117.6, 31.77 118.8 C29.24 119.03, 22.83 119.87, 10.59 118.8 C1.83 122.36, -3.06 112.94, 0 108.22 C2.2 83.45, 0.36 57.74, 0 10.59 C3.02 2.68, 0.91 3.12, 10.59 0" stroke="none" stroke-width="0" fill="#ffd43b"></path><path d="M10.59 0 C17.88 1.01, 21.77 -1.13, 31.77 0 M10.59 0 C19.39 -0.03, 27.06 0.16, 31.77 0 M31.77 0 C37.84 -0.18, 44.1 3.1, 42.36 10.59 M31.77 0 C37.64 -0.11, 41.83 4.74, 42.36 10.59 M42.36 10.59 C41.87 39.61, 44.84 67.21, 42.36 108.22 M42.36 10.59 C44 48.38, 43.45 88.56, 42.36 108.22 M42.36 108.22 C43.96 113.77, 39.13 119.55, 31.77 118.8 M42.36 108.22 C43.45 116.51, 39.22 120.6, 31.77 118.8 M31.77 118.8 C24.04 117.77, 19.37 117.1, 10.59 118.8 M31.77 118.8 C25.98 118.75, 19.21 119.85, 10.59 118.8 M10.59 118.8 C3.64 118.14, 1.21 116.99, 0 108.22 M10.59 118.8 C2.21 117.03, 1.06 115.71, 0 108.22 M0 108.22 C0.66 73.13, -2.5 35.83, 0 10.59 M0 108.22 C-0.98 81.62, -0.94 54.83, 0 10.59 M0 10.59 C-1.78 3.45, 2.22 0.84, 10.59 0 M0 10.59 C-0.2 2.16, 3.22 0.29, 10.59 0" stroke="#1e1e1e" stroke-width="2" fill="none"></path></g></svg>